<mxfile host="app.diagrams.net" modified="2020-03-21T13:04:33.684Z" agent="Mozilla/5.0 (X11; Linux x86_64) AppleWebKit/537.36 (KHTML, like Gecko) Chrome/80.0.3987.87 Safari/537.36" etag="SE8kF_yi8tToGQCFeiXH" version="12.8.8" type="github">
  <diagram id="5C9XdFfTCGC1RJXX4EIV" name="Page-1">
    <mxGraphModel dx="891" dy="916" grid="1" gridSize="10" guides="1" tooltips="1" connect="1" arrows="1" fold="1" page="1" pageScale="1" pageWidth="850" pageHeight="1100" math="0" shadow="0">
      <root>
        <mxCell id="0" />
        <mxCell id="1" parent="0" />
        <mxCell id="a-dAViJiOyDhsKy4tsEm-1" value="" style="rounded=1;whiteSpace=wrap;html=1;" parent="1" vertex="1">
          <mxGeometry x="450" y="310" width="250" height="220" as="geometry" />
        </mxCell>
        <mxCell id="QAyvV6yLoATiYzHATPbl-3" value="WIFI sniffer AP" style="rounded=1;whiteSpace=wrap;html=1;fillColor=#dae8fc;strokeColor=#6c8ebf;" parent="1" vertex="1">
          <mxGeometry x="470" y="320" width="120" height="40" as="geometry" />
        </mxCell>
        <mxCell id="lT0N95bP3LQVqfWPbGwU-2" value="WIFI sniffer AP" style="rounded=1;whiteSpace=wrap;html=1;fillColor=#dae8fc;strokeColor=#6c8ebf;" parent="1" vertex="1">
          <mxGeometry x="463" y="329" width="122" height="40" as="geometry" />
        </mxCell>
        <mxCell id="lT0N95bP3LQVqfWPbGwU-22" value="" style="endArrow=none;dashed=1;html=1;exitX=0.5;exitY=1;exitDx=0;exitDy=0;entryX=0;entryY=1;entryDx=0;entryDy=0;" parent="1" source="lT0N95bP3LQVqfWPbGwU-9" target="QAyvV6yLoATiYzHATPbl-3" edge="1">
          <mxGeometry width="50" height="50" relative="1" as="geometry">
            <mxPoint x="360" y="390" as="sourcePoint" />
            <mxPoint x="440" y="320" as="targetPoint" />
          </mxGeometry>
        </mxCell>
        <mxCell id="QAyvV6yLoATiYzHATPbl-13" value="" style="endArrow=classic;html=1;exitX=1;exitY=1;exitDx=0;exitDy=0;entryX=0.4;entryY=0.1;entryDx=0;entryDy=0;entryPerimeter=0;" parent="1" source="QAyvV6yLoATiYzHATPbl-3" target="zeFLAXpoPzBaWeqwmWnx-1" edge="1">
          <mxGeometry width="50" height="50" relative="1" as="geometry">
            <mxPoint x="630" y="470" as="sourcePoint" />
            <mxPoint x="690" y="370" as="targetPoint" />
          </mxGeometry>
        </mxCell>
        <mxCell id="QAyvV6yLoATiYzHATPbl-15" value="" style="endArrow=classic;html=1;entryX=0;entryY=0.5;entryDx=0;entryDy=0;exitX=1;exitY=0.5;exitDx=0;exitDy=0;" parent="1" target="QAyvV6yLoATiYzHATPbl-14" edge="1">
          <mxGeometry width="50" height="50" relative="1" as="geometry">
            <mxPoint x="530" y="370" as="sourcePoint" />
            <mxPoint x="430" y="400" as="targetPoint" />
          </mxGeometry>
        </mxCell>
        <mxCell id="zeFLAXpoPzBaWeqwmWnx-14" style="edgeStyle=orthogonalEdgeStyle;rounded=0;orthogonalLoop=1;jettySize=auto;html=1;dashed=1;startArrow=classic;startFill=1;endArrow=none;endFill=0;" edge="1" parent="1" source="QAyvV6yLoATiYzHATPbl-27" target="zeFLAXpoPzBaWeqwmWnx-12">
          <mxGeometry relative="1" as="geometry" />
        </mxCell>
        <mxCell id="QAyvV6yLoATiYzHATPbl-27" value="Downstream Apps" style="ellipse;shape=cloud;whiteSpace=wrap;html=1;" parent="1" vertex="1">
          <mxGeometry x="490" y="576" width="170" height="40" as="geometry" />
        </mxCell>
        <mxCell id="QAyvV6yLoATiYzHATPbl-44" value="" style="endArrow=classic;html=1;exitX=1;exitY=0.5;exitDx=0;exitDy=0;entryX=0;entryY=0.5;entryDx=0;entryDy=0;" parent="1" target="QAyvV6yLoATiYzHATPbl-21" edge="1">
          <mxGeometry width="50" height="50" relative="1" as="geometry">
            <mxPoint x="530" y="470" as="sourcePoint" />
            <mxPoint x="640" y="420" as="targetPoint" />
          </mxGeometry>
        </mxCell>
        <mxCell id="QAyvV6yLoATiYzHATPbl-46" value="" style="endArrow=none;dashed=1;html=1;entryX=0;entryY=0;entryDx=0;entryDy=0;exitX=0.5;exitY=0;exitDx=0;exitDy=0;" parent="1" source="QAyvV6yLoATiYzHATPbl-45" target="lT0N95bP3LQVqfWPbGwU-3" edge="1">
          <mxGeometry width="50" height="50" relative="1" as="geometry">
            <mxPoint x="410" y="340" as="sourcePoint" />
            <mxPoint x="460" y="290" as="targetPoint" />
          </mxGeometry>
        </mxCell>
        <mxCell id="QAyvV6yLoATiYzHATPbl-47" value="" style="endArrow=none;dashed=1;html=1;entryX=0;entryY=1;entryDx=0;entryDy=0;exitX=1;exitY=1;exitDx=0;exitDy=0;" parent="1" source="QAyvV6yLoATiYzHATPbl-45" target="lT0N95bP3LQVqfWPbGwU-3" edge="1">
          <mxGeometry width="50" height="50" relative="1" as="geometry">
            <mxPoint x="350" y="350" as="sourcePoint" />
            <mxPoint x="490.0000000000001" y="330" as="targetPoint" />
          </mxGeometry>
        </mxCell>
        <mxCell id="lT0N95bP3LQVqfWPbGwU-3" value="ACQ FE" style="rounded=1;whiteSpace=wrap;html=1;fillColor=#dae8fc;strokeColor=#6c8ebf;" parent="1" vertex="1">
          <mxGeometry x="460" y="340" width="120" height="40" as="geometry" />
        </mxCell>
        <mxCell id="lT0N95bP3LQVqfWPbGwU-7" value="" style="group" parent="1" vertex="1" connectable="0">
          <mxGeometry x="180" y="380" width="180" height="90" as="geometry" />
        </mxCell>
        <mxCell id="QAyvV6yLoATiYzHATPbl-45" value="coverage area" style="ellipse;whiteSpace=wrap;html=1;strokeColor=#82b366;fillColor=#E3F7E2;" parent="lT0N95bP3LQVqfWPbGwU-7" vertex="1">
          <mxGeometry y="10" width="180" height="80" as="geometry" />
        </mxCell>
        <mxCell id="QAyvV6yLoATiYzHATPbl-48" value="" style="shape=umlActor;verticalLabelPosition=bottom;labelBackgroundColor=#ffffff;verticalAlign=top;html=1;outlineConnect=0;strokeColor=#000000;fillColor=none;" parent="lT0N95bP3LQVqfWPbGwU-7" vertex="1">
          <mxGeometry x="20" y="30" width="10" height="30" as="geometry" />
        </mxCell>
        <mxCell id="QAyvV6yLoATiYzHATPbl-50" value="" style="shape=umlActor;verticalLabelPosition=bottom;labelBackgroundColor=#ffffff;verticalAlign=top;html=1;outlineConnect=0;strokeColor=#000000;fillColor=none;" parent="lT0N95bP3LQVqfWPbGwU-7" vertex="1">
          <mxGeometry x="140" y="10" width="10" height="30" as="geometry" />
        </mxCell>
        <mxCell id="QAyvV6yLoATiYzHATPbl-51" value="" style="shape=umlActor;verticalLabelPosition=bottom;labelBackgroundColor=#ffffff;verticalAlign=top;html=1;outlineConnect=0;strokeColor=#000000;fillColor=none;" parent="lT0N95bP3LQVqfWPbGwU-7" vertex="1">
          <mxGeometry x="70" y="10" width="10" height="30" as="geometry" />
        </mxCell>
        <mxCell id="QAyvV6yLoATiYzHATPbl-52" value="" style="shape=umlActor;verticalLabelPosition=bottom;labelBackgroundColor=#ffffff;verticalAlign=top;html=1;outlineConnect=0;strokeColor=#000000;fillColor=none;" parent="lT0N95bP3LQVqfWPbGwU-7" vertex="1">
          <mxGeometry x="99" y="54" width="10" height="30" as="geometry" />
        </mxCell>
        <mxCell id="lT0N95bP3LQVqfWPbGwU-21" value="" style="endArrow=none;dashed=1;html=1;entryX=0;entryY=0;entryDx=0;entryDy=0;exitX=1;exitY=0.5;exitDx=0;exitDy=0;" parent="1" source="lT0N95bP3LQVqfWPbGwU-9" target="QAyvV6yLoATiYzHATPbl-3" edge="1">
          <mxGeometry width="50" height="50" relative="1" as="geometry">
            <mxPoint x="350" y="380" as="sourcePoint" />
            <mxPoint x="470" y="350" as="targetPoint" />
          </mxGeometry>
        </mxCell>
        <mxCell id="lT0N95bP3LQVqfWPbGwU-23" value="" style="group" parent="1" vertex="1" connectable="0">
          <mxGeometry x="190" y="170" width="180" height="90" as="geometry" />
        </mxCell>
        <mxCell id="lT0N95bP3LQVqfWPbGwU-9" value="coverage area" style="ellipse;whiteSpace=wrap;html=1;strokeColor=#b85450;fillColor=#f8cecc;" parent="lT0N95bP3LQVqfWPbGwU-23" vertex="1">
          <mxGeometry y="10" width="180" height="80" as="geometry" />
        </mxCell>
        <mxCell id="lT0N95bP3LQVqfWPbGwU-10" value="" style="shape=umlActor;verticalLabelPosition=bottom;labelBackgroundColor=#ffffff;verticalAlign=top;html=1;outlineConnect=0;strokeColor=#000000;fillColor=none;" parent="lT0N95bP3LQVqfWPbGwU-23" vertex="1">
          <mxGeometry x="20" y="30" width="10" height="30" as="geometry" />
        </mxCell>
        <mxCell id="lT0N95bP3LQVqfWPbGwU-11" value="" style="shape=umlActor;verticalLabelPosition=bottom;labelBackgroundColor=#ffffff;verticalAlign=top;html=1;outlineConnect=0;strokeColor=#000000;fillColor=none;" parent="lT0N95bP3LQVqfWPbGwU-23" vertex="1">
          <mxGeometry x="30" y="40" width="10" height="30" as="geometry" />
        </mxCell>
        <mxCell id="lT0N95bP3LQVqfWPbGwU-12" value="" style="shape=umlActor;verticalLabelPosition=bottom;labelBackgroundColor=#ffffff;verticalAlign=top;html=1;outlineConnect=0;strokeColor=#000000;fillColor=none;" parent="lT0N95bP3LQVqfWPbGwU-23" vertex="1">
          <mxGeometry x="60" width="10" height="30" as="geometry" />
        </mxCell>
        <mxCell id="lT0N95bP3LQVqfWPbGwU-13" value="" style="shape=umlActor;verticalLabelPosition=bottom;labelBackgroundColor=#ffffff;verticalAlign=top;html=1;outlineConnect=0;strokeColor=#000000;fillColor=none;" parent="lT0N95bP3LQVqfWPbGwU-23" vertex="1">
          <mxGeometry x="95" y="40" width="10" height="30" as="geometry" />
        </mxCell>
        <mxCell id="lT0N95bP3LQVqfWPbGwU-14" value="" style="shape=umlActor;verticalLabelPosition=bottom;labelBackgroundColor=#ffffff;verticalAlign=top;html=1;outlineConnect=0;strokeColor=#000000;fillColor=none;" parent="lT0N95bP3LQVqfWPbGwU-23" vertex="1">
          <mxGeometry x="85" y="10" width="10" height="30" as="geometry" />
        </mxCell>
        <mxCell id="lT0N95bP3LQVqfWPbGwU-15" value="" style="shape=umlActor;verticalLabelPosition=bottom;labelBackgroundColor=#ffffff;verticalAlign=top;html=1;outlineConnect=0;strokeColor=#000000;fillColor=none;" parent="lT0N95bP3LQVqfWPbGwU-23" vertex="1">
          <mxGeometry x="70" y="50" width="10" height="30" as="geometry" />
        </mxCell>
        <mxCell id="lT0N95bP3LQVqfWPbGwU-16" value="" style="shape=umlActor;verticalLabelPosition=bottom;labelBackgroundColor=#ffffff;verticalAlign=top;html=1;outlineConnect=0;strokeColor=#000000;fillColor=none;" parent="lT0N95bP3LQVqfWPbGwU-23" vertex="1">
          <mxGeometry x="130" width="10" height="30" as="geometry" />
        </mxCell>
        <mxCell id="lT0N95bP3LQVqfWPbGwU-17" value="" style="shape=umlActor;verticalLabelPosition=bottom;labelBackgroundColor=#ffffff;verticalAlign=top;html=1;outlineConnect=0;strokeColor=#000000;fillColor=none;" parent="lT0N95bP3LQVqfWPbGwU-23" vertex="1">
          <mxGeometry x="130" y="50" width="10" height="30" as="geometry" />
        </mxCell>
        <mxCell id="lT0N95bP3LQVqfWPbGwU-18" value="" style="shape=umlActor;verticalLabelPosition=bottom;labelBackgroundColor=#ffffff;verticalAlign=top;html=1;outlineConnect=0;strokeColor=#000000;fillColor=none;" parent="lT0N95bP3LQVqfWPbGwU-23" vertex="1">
          <mxGeometry x="70" y="20" width="10" height="30" as="geometry" />
        </mxCell>
        <mxCell id="lT0N95bP3LQVqfWPbGwU-19" value="" style="shape=umlActor;verticalLabelPosition=bottom;labelBackgroundColor=#ffffff;verticalAlign=top;html=1;outlineConnect=0;strokeColor=#000000;fillColor=none;" parent="lT0N95bP3LQVqfWPbGwU-23" vertex="1">
          <mxGeometry x="105" y="10" width="10" height="30" as="geometry" />
        </mxCell>
        <mxCell id="zeFLAXpoPzBaWeqwmWnx-1" value="Backend" style="ellipse;shape=cloud;whiteSpace=wrap;html=1;fillColor=#fff2cc;strokeColor=#d6b656;" vertex="1" parent="1">
          <mxGeometry x="570" y="390" width="120" height="80" as="geometry" />
        </mxCell>
        <mxCell id="zeFLAXpoPzBaWeqwmWnx-2" value="" style="endArrow=classic;html=1;exitX=1;exitY=1;exitDx=0;exitDy=0;entryX=0.4;entryY=0.1;entryDx=0;entryDy=0;entryPerimeter=0;" edge="1" parent="1" source="lT0N95bP3LQVqfWPbGwU-2" target="zeFLAXpoPzBaWeqwmWnx-1">
          <mxGeometry width="50" height="50" relative="1" as="geometry">
            <mxPoint x="600" y="370" as="sourcePoint" />
            <mxPoint x="625.5999999999999" y="450" as="targetPoint" />
          </mxGeometry>
        </mxCell>
        <mxCell id="zeFLAXpoPzBaWeqwmWnx-3" value="" style="endArrow=classic;html=1;exitX=1;exitY=1;exitDx=0;exitDy=0;entryX=0.4;entryY=0.1;entryDx=0;entryDy=0;entryPerimeter=0;" edge="1" parent="1" source="lT0N95bP3LQVqfWPbGwU-3" target="zeFLAXpoPzBaWeqwmWnx-1">
          <mxGeometry width="50" height="50" relative="1" as="geometry">
            <mxPoint x="595" y="379" as="sourcePoint" />
            <mxPoint x="625.5999999999999" y="450" as="targetPoint" />
          </mxGeometry>
        </mxCell>
        <mxCell id="zeFLAXpoPzBaWeqwmWnx-10" value="User Interface(s)" style="rounded=1;whiteSpace=wrap;html=1;fillColor=#ffe6cc;strokeColor=#d79b00;" vertex="1" parent="1">
          <mxGeometry x="450" y="440" width="120" height="50" as="geometry" />
        </mxCell>
        <mxCell id="zeFLAXpoPzBaWeqwmWnx-11" value="" style="endArrow=classic;html=1;entryX=1;entryY=0.5;entryDx=0;entryDy=0;exitX=0.31;exitY=0.8;exitDx=0;exitDy=0;exitPerimeter=0;" edge="1" parent="1" source="zeFLAXpoPzBaWeqwmWnx-1" target="zeFLAXpoPzBaWeqwmWnx-10">
          <mxGeometry width="50" height="50" relative="1" as="geometry">
            <mxPoint x="540" y="640" as="sourcePoint" />
            <mxPoint x="590" y="590" as="targetPoint" />
          </mxGeometry>
        </mxCell>
        <mxCell id="zeFLAXpoPzBaWeqwmWnx-12" value="Gateway / API" style="rounded=1;whiteSpace=wrap;html=1;fillColor=#ffe6cc;strokeColor=#d79b00;" vertex="1" parent="1">
          <mxGeometry x="515" y="510" width="120" height="20" as="geometry" />
        </mxCell>
        <mxCell id="zeFLAXpoPzBaWeqwmWnx-13" value="" style="endArrow=classic;html=1;entryX=0.5;entryY=0;entryDx=0;entryDy=0;exitX=0.31;exitY=0.8;exitDx=0;exitDy=0;exitPerimeter=0;" edge="1" parent="1" source="zeFLAXpoPzBaWeqwmWnx-1" target="zeFLAXpoPzBaWeqwmWnx-12">
          <mxGeometry width="50" height="50" relative="1" as="geometry">
            <mxPoint x="617.1999999999998" y="464" as="sourcePoint" />
            <mxPoint x="580" y="475" as="targetPoint" />
          </mxGeometry>
        </mxCell>
        <mxCell id="zeFLAXpoPzBaWeqwmWnx-15" value="" style="endArrow=none;dashed=1;html=1;entryX=1;entryY=0.5;entryDx=0;entryDy=0;exitX=0;exitY=0.5;exitDx=0;exitDy=0;entryPerimeter=0;" edge="1" parent="1" source="zeFLAXpoPzBaWeqwmWnx-10" target="zeFLAXpoPzBaWeqwmWnx-24">
          <mxGeometry width="50" height="50" relative="1" as="geometry">
            <mxPoint x="410" y="640" as="sourcePoint" />
            <mxPoint x="370.0000000000001" y="540" as="targetPoint" />
          </mxGeometry>
        </mxCell>
        <mxCell id="zeFLAXpoPzBaWeqwmWnx-16" value="" style="group" vertex="1" connectable="0" parent="1">
          <mxGeometry x="40" y="290" width="180" height="90" as="geometry" />
        </mxCell>
        <mxCell id="zeFLAXpoPzBaWeqwmWnx-17" value="coverage area" style="ellipse;whiteSpace=wrap;html=1;strokeColor=#82b366;fillColor=#E3F7E2;" vertex="1" parent="zeFLAXpoPzBaWeqwmWnx-16">
          <mxGeometry y="10" width="180" height="80" as="geometry" />
        </mxCell>
        <mxCell id="zeFLAXpoPzBaWeqwmWnx-18" value="" style="shape=umlActor;verticalLabelPosition=bottom;labelBackgroundColor=#ffffff;verticalAlign=top;html=1;outlineConnect=0;strokeColor=#000000;fillColor=none;" vertex="1" parent="zeFLAXpoPzBaWeqwmWnx-16">
          <mxGeometry x="36" y="18" width="10" height="30" as="geometry" />
        </mxCell>
        <mxCell id="zeFLAXpoPzBaWeqwmWnx-19" value="" style="shape=umlActor;verticalLabelPosition=bottom;labelBackgroundColor=#ffffff;verticalAlign=top;html=1;outlineConnect=0;strokeColor=#000000;fillColor=none;" vertex="1" parent="zeFLAXpoPzBaWeqwmWnx-16">
          <mxGeometry x="140" y="10" width="10" height="30" as="geometry" />
        </mxCell>
        <mxCell id="zeFLAXpoPzBaWeqwmWnx-21" value="" style="shape=umlActor;verticalLabelPosition=bottom;labelBackgroundColor=#ffffff;verticalAlign=top;html=1;outlineConnect=0;strokeColor=#000000;fillColor=none;" vertex="1" parent="zeFLAXpoPzBaWeqwmWnx-16">
          <mxGeometry x="81" y="55" width="10" height="30" as="geometry" />
        </mxCell>
        <mxCell id="zeFLAXpoPzBaWeqwmWnx-22" value="" style="endArrow=none;dashed=1;html=1;entryX=0;entryY=0;entryDx=0;entryDy=0;exitX=1;exitY=0;exitDx=0;exitDy=0;" edge="1" parent="1" source="zeFLAXpoPzBaWeqwmWnx-17" target="lT0N95bP3LQVqfWPbGwU-2">
          <mxGeometry width="50" height="50" relative="1" as="geometry">
            <mxPoint x="280" y="400" as="sourcePoint" />
            <mxPoint x="470" y="350" as="targetPoint" />
          </mxGeometry>
        </mxCell>
        <mxCell id="zeFLAXpoPzBaWeqwmWnx-23" value="" style="endArrow=none;dashed=1;html=1;entryX=0;entryY=1;entryDx=0;entryDy=0;exitX=1;exitY=1;exitDx=0;exitDy=0;" edge="1" parent="1" source="zeFLAXpoPzBaWeqwmWnx-17" target="lT0N95bP3LQVqfWPbGwU-2">
          <mxGeometry width="50" height="50" relative="1" as="geometry">
            <mxPoint x="223.63961030678934" y="321.7157287525382" as="sourcePoint" />
            <mxPoint x="473" y="339" as="targetPoint" />
          </mxGeometry>
        </mxCell>
        <mxCell id="zeFLAXpoPzBaWeqwmWnx-26" value="" style="group" vertex="1" connectable="0" parent="1">
          <mxGeometry x="250" y="530" width="40" height="70" as="geometry" />
        </mxCell>
        <mxCell id="zeFLAXpoPzBaWeqwmWnx-24" value="" style="aspect=fixed;pointerEvents=1;shadow=0;dashed=0;html=1;strokeColor=none;labelPosition=center;verticalLabelPosition=bottom;verticalAlign=top;align=center;fillColor=#00188D;shape=mxgraph.mscae.enterprise.android_phone" vertex="1" parent="zeFLAXpoPzBaWeqwmWnx-26">
          <mxGeometry x="5" width="30" height="50" as="geometry" />
        </mxCell>
        <mxCell id="zeFLAXpoPzBaWeqwmWnx-25" value="App" style="text;html=1;strokeColor=none;fillColor=none;align=center;verticalAlign=middle;whiteSpace=wrap;rounded=0;" vertex="1" parent="zeFLAXpoPzBaWeqwmWnx-26">
          <mxGeometry y="50" width="40" height="20" as="geometry" />
        </mxCell>
      </root>
    </mxGraphModel>
  </diagram>
</mxfile>
